<svg xmlns="http://www.w3.org/2000/svg" id="voronoi" width="620" height="620"><path d="M330.771,269.87L351.855,292.333L461.891,295.58L491.423,257.775L456.011,176.144Z" style="fill: rgb(231, 150, 156); stroke: rgb(0, 0, 0); stroke-width: 1; opacity: 0.75;"/><path d="M330.771,269.87L325.267,267.937L221.586,350.199L220.352,411.948L253.497,448.974L297.644,458.97L340.45,436.204L351.855,292.333Z" style="fill: rgb(181, 207, 107); stroke: rgb(0, 0, 0); stroke-width: 1; opacity: 0.75;"/><path d="M330.771,269.87L456.011,176.144L456.493,173.598L408.822,96.69L310.267,108.392L296.964,224.104L325.267,267.937Z" style="fill: rgb(82, 84, 163); stroke: rgb(0, 0, 0); stroke-width: 1; opacity: 0.75;"/><path d="M325.267,267.937L296.964,224.104L175.192,185.488L145.686,203.491L121.359,262.454L132.264,306.585L221.586,350.199Z" style="fill: rgb(57, 59, 121); stroke: rgb(0, 0, 0); stroke-width: 1; opacity: 0.75;"/><path d="M2.366,262.4L0.592,281.163L0,300L0.592,318.837L2.366,337.6L5.314,356.214L7.759,367.154L106.889,350.958L132.264,306.585L121.359,262.454L4.933,246.192Z" style="fill: rgb(173, 73, 74); stroke: rgb(0, 0, 0); stroke-width: 1; opacity: 0.75;"/><path d="M106.889,350.958L141.955,414.657L220.352,411.948L221.586,350.199L132.264,306.585Z" style="fill: rgb(140, 109, 49); stroke: rgb(0, 0, 0); stroke-width: 1; opacity: 0.75;"/><path d="M106.889,350.958L7.759,367.154L9.425,374.607L14.683,392.705L21.067,410.437L28.552,427.734L37.108,444.526L46.702,460.748L57.295,476.336L68.846,491.227L79.119,502.88L141.955,414.657Z" style="fill: rgb(107, 110, 207); stroke: rgb(0, 0, 0); stroke-width: 1; opacity: 0.75;"/><path d="M351.855,292.333L340.45,436.204L446.419,471.024L505.298,426.359L461.891,295.58Z" style="fill: rgb(132, 60, 57); stroke: rgb(0, 0, 0); stroke-width: 1; opacity: 0.75;"/><path d="M318.837,599.408L337.6,597.634L356.214,594.686L374.607,590.575L392.705,585.317L410.437,578.933L427.734,571.448L444.526,562.892L460.748,553.298L469.016,547.679L446.419,471.024L340.45,436.204L297.644,458.97L317.175,599.46Z" style="fill: rgb(231, 186, 82); stroke: rgb(0, 0, 0); stroke-width: 1; opacity: 0.75;"/><path d="M446.419,471.024L469.016,547.679L476.336,542.705L491.227,531.154L505.364,518.691L518.691,505.364L531.154,491.227L542.705,476.336L553.298,460.748L562.892,444.526L563.361,443.606L505.298,426.359Z" style="fill: rgb(123, 65, 115); stroke: rgb(0, 0, 0); stroke-width: 1; opacity: 0.75;"/><path d="M141.955,414.657L79.119,502.88L81.309,505.364L94.636,518.691L108.773,531.154L123.664,542.705L139.252,553.298L155.474,562.892L172.266,571.448L178.299,574.059L253.497,448.974L220.352,411.948Z" style="fill: rgb(165, 81, 148); stroke: rgb(0, 0, 0); stroke-width: 1; opacity: 0.75;"/><path d="M571.448,427.734L578.933,410.437L585.317,392.705L590.575,374.607L594.686,356.214L597.634,337.6L599.408,318.837L600,300L599.408,281.163L597.634,262.4L595.91,251.513L491.423,257.775L461.891,295.58L505.298,426.359L563.361,443.606Z" style="fill: rgb(214, 97, 107); stroke: rgb(0, 0, 0); stroke-width: 1; opacity: 0.75;"/><path d="M491.423,257.775L595.91,251.513L594.686,243.786L590.575,225.393L585.317,207.295L578.933,189.563L571.448,172.266L562.892,155.474L553.298,139.252L542.705,123.664L539.808,119.93L456.493,173.598L456.011,176.144Z" style="fill: rgb(189, 158, 57); stroke: rgb(0, 0, 0); stroke-width: 1; opacity: 0.75;"/><path d="M310.267,108.392L408.822,96.69L437.996,33.781L427.734,28.552L410.437,21.067L392.705,14.683L374.607,9.425L356.214,5.314L337.6,2.366L318.837,0.592L300,0L286.261,0.432L290.414,89.505Z" style="fill: rgb(99, 121, 57); stroke: rgb(0, 0, 0); stroke-width: 1; opacity: 0.75;"/><path d="M310.267,108.392L290.414,89.505L191.979,114.968L175.192,185.488L296.964,224.104Z" style="fill: rgb(156, 158, 222); stroke: rgb(0, 0, 0); stroke-width: 1; opacity: 0.75;"/><path d="M189.563,578.933L207.295,585.317L225.393,590.575L243.786,594.686L262.4,597.634L281.163,599.408L300,600L317.175,599.46L297.644,458.97L253.497,448.974L178.299,574.059Z" style="fill: rgb(206, 109, 189); stroke: rgb(0, 0, 0); stroke-width: 1; opacity: 0.75;"/><path d="M531.154,108.773L518.691,94.636L505.364,81.309L491.227,68.846L476.336,57.295L460.748,46.702L444.526,37.108L437.996,33.781L408.822,96.69L456.493,173.598L539.808,119.93Z" style="fill: rgb(140, 162, 82); stroke: rgb(0, 0, 0); stroke-width: 1; opacity: 0.75;"/><path d="M46.702,139.252L37.108,155.474L28.552,172.266L21.067,189.563L14.683,207.295L9.425,225.393L5.314,243.786L4.933,246.192L121.359,262.454L145.686,203.491L49.022,135.838Z" style="fill: rgb(222, 158, 214); stroke: rgb(0, 0, 0); stroke-width: 1; opacity: 0.75;"/><path d="M281.163,0.592L262.4,2.366L243.786,5.314L225.393,9.425L207.295,14.683L189.563,21.067L172.266,28.552L155.474,37.108L139.498,46.556L191.979,114.968L290.414,89.505L286.261,0.432Z" style="fill: rgb(231, 203, 148); stroke: rgb(0, 0, 0); stroke-width: 1; opacity: 0.75;"/><path d="M191.979,114.968L139.498,46.556L139.252,46.702L123.664,57.295L108.773,68.846L94.636,81.309L81.309,94.636L68.846,108.773L57.295,123.664L49.022,135.838L145.686,203.491L175.192,185.488Z" style="fill: rgb(206, 219, 156); stroke: rgb(0, 0, 0); stroke-width: 1; opacity: 0.75;"/><text x="421.6416357941943" y="250.79685877590694" font-size="16px" text-anchor="middle" dominant-baseline="middle" fill="#050505" font-weight="bold" font-family="Courier New, monospace">Nott'm Forest</text><text x="291.09373239969557" y="371.3686916124222" font-size="16px" text-anchor="middle" dominant-baseline="middle" fill="#050505" font-weight="bold" font-family="Courier New, monospace">Chelsea</text><text x="365.1551348468414" y="173.37500580718898" font-size="16px" text-anchor="middle" dominant-baseline="middle" fill="#050505" font-weight="bold" font-family="Courier New, monospace">Aston Villa</text><text x="213.63312133783978" y="264.71923517453797" font-size="16px" text-anchor="middle" dominant-baseline="middle" fill="#050505" font-weight="bold" font-family="Courier New, monospace">Arsenal</text><text x="59.40110470438524" y="305.30954710686905" font-size="16px" text-anchor="middle" dominant-baseline="middle" fill="#050505" font-weight="bold" font-family="Courier New, monospace">Man United</text><text x="166.4723676883156" y="367.0483262598438" font-size="16px" text-anchor="middle" dominant-baseline="middle" fill="#050505" font-weight="bold" font-family="Courier New, monospace">Everton</text><text x="75.81622300404806" y="414.29494563913477" font-size="16px" text-anchor="middle" dominant-baseline="middle" fill="#050505" font-weight="bold" font-family="Courier New, monospace">Bournemouth</text><text x="416.91371478409434" y="379.0530161876438" font-size="16px" text-anchor="middle" dominant-baseline="middle" fill="#050505" font-weight="bold" font-family="Courier New, monospace">Man City</text><text x="375.34561391449057" y="518.0120113179337" font-size="16px" text-anchor="middle" dominant-baseline="middle" fill="#050505" font-weight="bold" font-family="Courier New, monospace">Liverpool</text><text x="498.5993196810731" y="478.67243025369913" font-size="16px" text-anchor="middle" dominant-baseline="middle" fill="#050505" font-weight="bold" font-family="Courier New, monospace">Sheffield United</text><text x="167.79279547375972" y="483.342939560414" font-size="16px" text-anchor="middle" dominant-baseline="middle" fill="#050505" font-weight="bold" font-family="Courier New, monospace">Tottenham</text><text x="537.7542653161684" y="336.4401588604521" font-size="16px" text-anchor="middle" dominant-baseline="middle" fill="#050505" font-weight="bold" font-family="Courier New, monospace">Newcastle</text><text x="527.2516951001126" y="198.68573531144588" font-size="16px" text-anchor="middle" dominant-baseline="middle" fill="#050505" font-weight="bold" font-family="Courier New, monospace">Fulham</text><text x="352.56458832556353" y="53.30530412766731" font-size="16px" text-anchor="middle" dominant-baseline="middle" fill="#050505" font-weight="bold" font-family="Courier New, monospace">Brighton</text><text x="249.6972667508648" y="154.3629690458156" font-size="16px" text-anchor="middle" dominant-baseline="middle" fill="#050505" font-weight="bold" font-family="Courier New, monospace">Brentford</text><text x="258.38876230218466" y="535.1642368052302" font-size="16px" text-anchor="middle" dominant-baseline="middle" fill="#050505" font-weight="bold" font-family="Courier New, monospace">West Ham</text><text x="467.08287692757494" y="104.56844258481836" font-size="16px" text-anchor="middle" dominant-baseline="middle" fill="#050505" font-weight="bold" font-family="Courier New, monospace">Burnley</text><text x="72.76106949853205" y="208.97634271789005" font-size="16px" text-anchor="middle" dominant-baseline="middle" fill="#050505" font-weight="bold" font-family="Courier New, monospace">Wolves</text><text x="225.5240710836415" y="56.39835294978344" font-size="16px" text-anchor="middle" dominant-baseline="middle" fill="#050505" font-weight="bold" font-family="Courier New, monospace">Luton</text><text x="129.3017733239479" y="127.47934963875373" font-size="16px" text-anchor="middle" dominant-baseline="middle" fill="#050505" font-weight="bold" font-family="Courier New, monospace">Crystal Palace</text><text class="goals" x="421.6416357941943" y="262.7968587759069" font-size="14px" text-anchor="middle" dominant-baseline="middle" fill="#232323" font-family="Courier New, monospace">49</text><text class="goals" x="291.09373239969557" y="383.3686916124222" font-size="14px" text-anchor="middle" dominant-baseline="middle" fill="#232323" font-family="Courier New, monospace">77</text><text class="goals" x="365.1551348468414" y="185.37500580718898" font-size="14px" text-anchor="middle" dominant-baseline="middle" fill="#232323" font-family="Courier New, monospace">76</text><text class="goals" x="213.63312133783978" y="276.71923517453797" font-size="14px" text-anchor="middle" dominant-baseline="middle" fill="#232323" font-family="Courier New, monospace">91</text><text class="goals" x="59.40110470438524" y="317.30954710686905" font-size="14px" text-anchor="middle" dominant-baseline="middle" fill="#232323" font-family="Courier New, monospace">57</text><text class="goals" x="166.4723676883156" y="379.0483262598438" font-size="14px" text-anchor="middle" dominant-baseline="middle" fill="#232323" font-family="Courier New, monospace">40</text><text class="goals" x="75.81622300404806" y="426.29494563913477" font-size="14px" text-anchor="middle" dominant-baseline="middle" fill="#232323" font-family="Courier New, monospace">54</text><text class="goals" x="416.91371478409434" y="391.0530161876438" font-size="14px" text-anchor="middle" dominant-baseline="middle" fill="#232323" font-family="Courier New, monospace">96</text><text class="goals" x="375.34561391449057" y="530.0120113179337" font-size="14px" text-anchor="middle" dominant-baseline="middle" fill="#232323" font-family="Courier New, monospace">86</text><text class="goals" x="498.5993196810731" y="490.67243025369913" font-size="14px" text-anchor="middle" dominant-baseline="middle" fill="#232323" font-family="Courier New, monospace">35</text><text class="goals" x="167.79279547375972" y="495.342939560414" font-size="14px" text-anchor="middle" dominant-baseline="middle" fill="#232323" font-family="Courier New, monospace">74</text><text class="goals" x="537.7542653161684" y="348.4401588604521" font-size="14px" text-anchor="middle" dominant-baseline="middle" fill="#232323" font-family="Courier New, monospace">85</text><text class="goals" x="527.2516951001126" y="210.68573531144588" font-size="14px" text-anchor="middle" dominant-baseline="middle" fill="#232323" font-family="Courier New, monospace">55</text><text class="goals" x="352.56458832556353" y="65.30530412766731" font-size="14px" text-anchor="middle" dominant-baseline="middle" fill="#232323" font-family="Courier New, monospace">55</text><text class="goals" x="249.6972667508648" y="166.3629690458156" font-size="14px" text-anchor="middle" dominant-baseline="middle" fill="#232323" font-family="Courier New, monospace">56</text><text class="goals" x="258.38876230218466" y="547.1642368052302" font-size="14px" text-anchor="middle" dominant-baseline="middle" fill="#232323" font-family="Courier New, monospace">60</text><text class="goals" x="467.08287692757494" y="116.56844258481836" font-size="14px" text-anchor="middle" dominant-baseline="middle" fill="#232323" font-family="Courier New, monospace">41</text><text class="goals" x="72.76106949853205" y="220.97634271789005" font-size="14px" text-anchor="middle" dominant-baseline="middle" fill="#232323" font-family="Courier New, monospace">50</text><text class="goals" x="225.5240710836415" y="68.39835294978343" font-size="14px" text-anchor="middle" dominant-baseline="middle" fill="#232323" font-family="Courier New, monospace">52</text><text class="goals" x="129.3017733239479" y="139.47934963875372" font-size="14px" text-anchor="middle" dominant-baseline="middle" fill="#232323" font-family="Courier New, monospace">57</text></svg>